<?xml version="1.0" encoding="utf-8"?>
<!-- Generator: Adobe Illustrator 24.0.0, SVG Export Plug-In . SVG Version: 6.00 Build 0)  -->
<svg version="1.1" id="Layer_1" xmlns="http://www.w3.org/2000/svg" xmlns:xlink="http://www.w3.org/1999/xlink" x="0px" y="0px"
	 viewBox="0 0 221.73 70" style="enable-background:new 0 0 221.73 70;" xml:space="preserve">
<style type="text/css">
	.st0{fill:#FFFFFF;}
</style>
<g>
	<path class="st0" d="M12.15,43.82c2.79-8.79,7.19-16.69,13.38-23.55c1.55-1.71,3.15-3.34,5-4.7c0.86-0.64,1.77-1.16,2.87-1.19
		c0.69-0.03,1.35,0.14,1.96,0.47c0.69,0.39,0.97,0.99,0.97,1.77c0.03,0.91-0.19,1.8-0.44,2.65c-1.1,3.7-2.35,7.35-4.06,10.83
		c-0.36,0.72-0.75,1.44-1.24,2.1c-0.14,0.22-0.3,0.42-0.58,0.47c-0.72,0.11-1.1-0.28-0.94-0.94c0.36-1.44,0.94-2.82,1.44-4.2
		c1.11-3.04,2.18-6.11,2.93-9.26c0.17-0.66,0.28-1.33,0.28-1.99c0-0.41-0.06-0.44-0.42-0.22c-1.49,0.88-2.79,2.04-4.01,3.26
		c-5.53,5.58-9.7,12.11-12.77,19.32c-1.27,3.01-2.38,6.11-2.99,9.34c-0.28,1.46-0.44,2.93-0.19,4.42c0.11,0.66,0.33,1.3,0.75,1.82
		c0.19,0.25,0.39,0.3,0.66,0.19c0.77-0.3,1.41-0.8,1.99-1.35c1.6-1.49,2.99-3.21,4.42-4.89c2.13-2.57,4.17-5.17,6.49-7.57
		c0.44-0.44,0.86-0.36,1.22-0.22c0.39,0.17,0.42,0.3,0.17,0.61c-1.33,1.77-2.68,3.54-4.01,5.28c-1.69,2.21-3.32,4.48-5.14,6.55
		c-0.61,0.72-1.27,1.41-2.04,1.99c-1.85,1.38-4.45,1.22-5.89-0.39c-0.72-0.83-0.97-1.82-1.08-2.87c-0.03-0.33,0-0.64,0-0.97
		C10.91,48.24,11.43,46,12.15,43.82z"/>
	<path class="st0" d="M45.27,38.04c0.14,0.22-0.14,0.33-0.25,0.44c-1.3,1.44-2.27,3.07-3.32,4.67c-1.77,2.71-3.21,5.58-4.75,8.4
		c-0.33,0.64-0.72,1.27-1.16,1.82c-0.55,0.64-1.24,0.86-2.07,0.75c-0.52-0.06-0.86-0.36-0.99-0.88c-0.22-0.86-0.25-1.74-0.19-2.62
		c0.14-3.48,0.72-6.88,1.63-10.25c1.82-6.83,4.31-13.4,7.27-19.82c0.86-1.88,1.66-3.79,2.57-5.64c0.22-0.41,0.44-0.83,0.69-1.24
		c0.44-0.72,1.16-1.02,1.96-0.86c0.47,0.11,0.58,0.3,0.39,0.72c-0.28,0.58-0.53,1.16-0.8,1.71c-2.07,4.31-3.87,8.71-5.61,13.16
		c-2.13,5.42-3.87,10.97-4.97,16.72c-0.44,2.13-0.72,4.28-0.86,6.44c-0.03,0.22,0,0.44,0,0.75c0.33-0.41,0.55-0.8,0.77-1.19
		c1.33-2.21,2.49-4.53,3.9-6.72c1.22-1.82,2.4-3.68,3.9-5.31c0.3-0.33,0.64-0.64,0.99-0.91c0.08-0.08,0.19-0.17,0.3-0.19
		C44.88,37.93,45.13,37.85,45.27,38.04z"/>
	<path class="st0" d="M42.15,42.13c0.19-1.19,0.69-2.21,1.33-3.21c1.44-2.29,3.18-4.28,5.47-5.78c0.91-0.61,1.91-0.86,2.98-0.52
		c0.94,0.28,1.35,0.77,1.41,1.74c0,0.03,0,0.03,0,0.06c-0.06,0.22,0.25,0.5-0.17,0.64c-0.36,0.14-1.11-0.06-1.24-0.33
		c-0.11-0.19,0.03-0.41-0.08-0.66c-0.14-0.3-0.28-0.36-0.55-0.14c-1.19,0.86-2.15,1.94-3.07,3.07c-1.13,1.41-2.16,2.87-2.96,4.5
		c-0.28,0.55-0.5,1.13-0.53,1.82c0.25-0.08,0.41-0.28,0.55-0.41c1.77-1.63,3.21-3.57,4.56-5.5c0.19-0.28,0.36-0.53,0.53-0.8
		c0.5-0.72,1.93-0.72,2.43-0.03c0.22,0.33,0.11,0.66,0.08,0.99c-0.14,1.05-0.39,2.07-0.58,3.1c-0.08,0.47-0.22,0.94-0.19,1.49
		c0.83-0.8,1.49-1.66,2.18-2.46c0.61-0.72,1.16-1.46,1.85-2.13c0.39-0.36,0.83-0.64,1.41-0.41c0.36,0.14,0.42,0.25,0.19,0.58
		c-0.94,1.35-1.82,2.74-2.82,4.06c-0.53,0.66-1.08,1.27-1.74,1.8c-0.75,0.61-1.71,0.66-2.54,0.17c-0.47-0.25-0.66-0.69-0.77-1.19
		c-0.11-0.64-0.03-1.27,0.06-1.88c0.03-0.11,0.03-0.22-0.03-0.36c-0.28,0.36-0.55,0.72-0.86,1.08c-0.8,1.02-1.6,2.02-2.57,2.85
		c-1,0.86-2.21,1-3.35,0.36C42.35,44.15,41.96,43.24,42.15,42.13z"/>
	<path class="st0" d="M63.38,36.49c0-0.06,0-0.08,0.03-0.25c-0.52,0.86-0.94,1.63-1.38,2.43c-0.8,1.52-1.6,3.01-2.6,4.39
		c-0.22,0.3-0.47,0.61-0.75,0.88c-0.66,0.69-1.49,0.77-2.38,0.47c-0.55-0.17-0.8-0.64-0.91-1.16c-0.19-1.1-0.06-2.18,0.11-3.26
		c0.36-2.1,1.11-4.06,2.07-5.97c0.5-0.97,1.27-1.02,2.1-0.83c0.47,0.11,0.53,0.28,0.42,0.75c-0.61,2.16-1.3,4.26-1.77,6.44
		c-0.19,0.77-0.36,1.55-0.42,2.43c0.75-0.83,1.35-1.66,1.88-2.54c1.41-2.32,2.74-4.7,4.17-6.99c0.17-0.25,0.3-0.5,0.61-0.58
		c0.91-0.22,1.33,0.14,1.13,1.02c-0.44,2.32-0.83,4.67-1.02,7.05c0,0.28-0.03,0.55-0.03,0.86c-0.03,0.11,0,0.19,0,0.44
		c0.66-0.75,1.16-1.46,1.71-2.18c0.64-0.8,1.24-1.63,1.88-2.46c0.03-0.08,0.08-0.14,0.14-0.19c0.17-0.22,0.42-0.25,0.64-0.14
		c0.25,0.14,0.14,0.36,0.06,0.55c-0.55,1.13-1.24,2.16-2.02,3.18c-0.5,0.66-1,1.35-1.6,1.93c-0.25,0.22-0.5,0.39-0.8,0.47
		c-0.97,0.22-1.58-0.22-1.63-1.22C62.91,40.17,63.02,38.32,63.38,36.49z"/>
	<path class="st0" d="M73.17,55.89c-0.03,0.25-0.03,0.44,0.08,0.69c0.08,0.19-0.03,0.5-0.3,0.61c-0.44,0.17-1.02-0.14-1.1-0.61
		c-0.22-0.99-0.19-2.02-0.22-3.01c-0.11-4.12,0.58-8.1,1.55-12.08c0.06-0.11,0.08-0.25,0.11-0.39c-0.03,0-0.06,0-0.06-0.03
		c-0.58,0.83-1.13,1.69-1.71,2.49c-0.39,0.55-0.77,1.11-1.22,1.6c-0.58,0.72-1.58,0.91-2.4,0.58c-0.52-0.22-0.75-0.66-0.88-1.16
		c-0.19-0.83-0.14-1.63,0-2.46c0.5-3.18,1.69-6.08,3.84-8.54c0.97-1.1,2.18-1.74,3.7-1.69c0.41,0.03,0.83,0.08,1.19,0.28
		c0.28,0.14,0.39,0.11,0.5-0.19c0.83-2.27,1.8-4.48,2.79-6.69c1.69-3.73,3.59-7.35,5.75-10.83c0.19-0.33,0.44-0.64,0.66-0.94
		c0.19-0.28,0.47-0.41,0.8-0.39c0.33,0.03,0.75,0.06,0.83,0.42c0.06,0.33,0.03,0.75-0.42,0.97c-0.06,0.03-0.08,0.11-0.14,0.19
		c-1.55,3.21-3.29,6.36-4.75,9.65c-2.9,6.58-5.36,13.29-7.02,20.31C73.86,48.35,73.37,52.11,73.17,55.89z M74.25,36.91
		c0.41-0.53,0.69-1.11,0.8-1.74c0.11-0.61,0.06-1.24-0.22-1.8c-0.22-0.47-0.42-0.5-0.83-0.22c-0.58,0.39-1.02,0.91-1.44,1.46
		c-1.3,1.71-2.24,3.65-2.79,5.72c-0.33,1.16-0.61,2.35-0.55,3.59c0.25-0.33,0.5-0.64,0.75-0.97C71.43,40.97,72.73,38.87,74.25,36.91
		z"/>
	<path class="st0" d="M83.41,32.29c0.3,0.11,0.44,0.3,0.39,0.66c-0.14,0.86-0.41,1.66-0.64,2.49c-0.63,2.1-1.3,4.2-1.63,6.38
		c-0.11,0.69-0.22,1.41,0.03,2.13c0.14,0.47,0.22,0.5,0.61,0.22c1.3-0.86,2.32-1.99,3.37-3.12c0.94-1.05,1.8-2.18,2.68-3.32
		c0.14-0.19,0.33-0.3,0.58-0.3c0.36,0.03,0.44,0.14,0.25,0.44c-0.72,1.27-1.55,2.46-2.46,3.56c-0.86,1.05-1.74,2.02-2.74,2.93
		c-0.75,0.66-1.6,0.99-2.62,0.94c-1.22-0.11-2.05-0.88-2.21-2.1c-0.03-0.25-0.03-0.5-0.06-0.69c0.08-1.69,0.41-3.26,0.86-4.81
		c0.42-1.55,0.86-3.07,1.49-4.53C81.69,32.26,82.46,31.96,83.41,32.29z M82.41,30.38c-0.28-0.17-0.19-0.39-0.03-0.58
		c0.52-0.52,1.19-0.83,1.88-0.99c0.28-0.06,0.55-0.06,0.77-0.08c0.3,0.03,0.69-0.08,0.75,0.22c0.06,0.3-0.36,0.25-0.58,0.33
		c-0.58,0.17-1.05,0.47-1.46,0.91C83.43,30.55,82.8,30.66,82.41,30.38z"/>
	<path class="st0" d="M85.2,42.13c0.19-1.19,0.69-2.21,1.33-3.21c1.44-2.29,3.18-4.28,5.47-5.78c0.91-0.61,1.91-0.86,2.98-0.52
		c0.94,0.28,1.35,0.77,1.41,1.74c0,0.03,0,0.03,0,0.06c-0.06,0.22,0.25,0.5-0.17,0.64c-0.36,0.14-1.11-0.06-1.24-0.33
		c-0.11-0.19,0.03-0.41-0.08-0.66c-0.14-0.3-0.28-0.36-0.55-0.14c-1.19,0.86-2.15,1.94-3.07,3.07c-1.13,1.41-2.16,2.87-2.96,4.5
		c-0.28,0.55-0.5,1.13-0.53,1.82c0.25-0.08,0.41-0.28,0.55-0.41c1.77-1.63,3.21-3.57,4.56-5.5c0.19-0.28,0.36-0.53,0.53-0.8
		c0.5-0.72,1.93-0.72,2.43-0.03c0.22,0.33,0.11,0.66,0.08,0.99c-0.14,1.05-0.39,2.07-0.58,3.1c-0.08,0.47-0.22,0.94-0.19,1.49
		c0.83-0.8,1.49-1.66,2.18-2.46c0.61-0.72,1.16-1.46,1.85-2.13c0.39-0.36,0.83-0.64,1.41-0.41c0.36,0.14,0.42,0.25,0.19,0.58
		C99.88,39.09,99,40.47,98,41.8c-0.53,0.66-1.08,1.27-1.74,1.8c-0.75,0.61-1.71,0.66-2.54,0.17c-0.47-0.25-0.66-0.69-0.77-1.19
		c-0.11-0.64-0.03-1.27,0.06-1.88c0.03-0.11,0.03-0.22-0.03-0.36c-0.28,0.36-0.55,0.72-0.86,1.08c-0.8,1.02-1.6,2.02-2.57,2.85
		c-1,0.86-2.21,1-3.35,0.36C85.4,44.15,85.01,43.24,85.2,42.13z"/>
	<path class="st0" d="M115.67,47.91c-0.69,2.13-1.35,4.26-1.63,6.49c-0.03,0.19-0.03,0.36-0.06,0.55c-0.03,0.22,0,0.42,0.28,0.47
		c0.11,0.03,0.28,0.11,0.25,0.28c0,0.14-0.14,0.17-0.25,0.22c-0.72,0.36-1.63-0.14-1.8-1.02c-0.17-0.8-0.08-1.63,0-2.43
		c0.28-2.1,0.77-4.12,1.35-6.14c0.11-0.44,0.25-0.88,0.28-1.33c0.06-0.42,0.17-0.83,0.33-1.22c0.88-1.96,1.46-4.03,2.18-6.03
		c1.33-3.56,2.6-7.13,4.17-10.58c0.3-0.64,0.61-1.3,0.99-1.88c0.14-0.22,0.3-0.44,0.58-0.5c0.39-0.06,0.77,0,1.08,0.28
		c0.22,0.25,0,0.53-0.08,0.77c-1.52,4.12-3.12,8.18-4.51,12.33c-0.03,0.14-0.14,0.28-0.06,0.47c0.8-0.52,1.66-0.91,2.57-1.24
		c0.33-0.11,0.64-0.08,0.94,0.06c0.11,0.06,0.25,0.11,0.25,0.25c0.03,0.17-0.14,0.17-0.25,0.22c-0.25,0.11-0.53,0.22-0.77,0.36
		c-1.41,0.69-2.6,1.71-3.59,2.93c-0.14,0.17-0.22,0.39-0.3,0.61c-0.44,1.38-0.91,2.74-1.35,4.12c-0.08,0.25-0.11,0.47,0.08,0.66
		c0.22,0.25,0.44,0.14,0.66,0.06c1.33-0.41,2.43-1.19,3.45-2.1c2.24-1.96,4.01-4.34,5.56-6.83c2.04-3.23,3.79-6.61,4.86-10.25
		c0.53-1.82,0.88-3.68,0.77-5.58c-0.06-0.91-0.19-1.8-0.64-2.62c-0.64-1.27-1.58-1.77-2.98-1.6c-1.88,0.19-3.59,0.88-5.2,1.82
		c-5.5,3.21-8.98,7.9-10.31,14.15c-0.17,0.75-0.25,1.49-0.22,2.27c0.03,0.25,0.11,0.3,0.33,0.19c0.36-0.22,0.72-0.42,1.05-0.64
		c0.28-0.17,0.52-0.14,0.77,0c0.14,0.08,0.22,0.19,0.03,0.28c-0.42,0.17-0.72,0.5-1.05,0.77c-1,0.86-2.74,0.33-2.85-1.22
		c-0.11-1.19,0.08-2.35,0.36-3.48c1.58-6.6,5.44-11.36,11.58-14.23c1.93-0.91,3.98-1.41,6.16-1.13c1.58,0.22,3.04,0.72,4.17,1.96
		c1.08,1.16,1.41,2.6,1.49,4.15c0.11,2.29-0.41,4.53-1.16,6.69c-1.91,5.47-4.84,10.36-8.73,14.65c-1.24,1.38-2.65,2.54-4.31,3.34
		c-1.33,0.64-2.71,0.88-4.15,0.44C115.81,47.6,115.73,47.68,115.67,47.91z"/>
	<path class="st0" d="M132.24,42.13c0.19-1.19,0.69-2.21,1.33-3.21c1.44-2.29,3.18-4.28,5.47-5.78c0.91-0.61,1.91-0.86,2.98-0.52
		c0.94,0.28,1.35,0.77,1.41,1.74c0,0.03,0,0.03,0,0.06c-0.06,0.22,0.25,0.5-0.17,0.64c-0.36,0.14-1.11-0.06-1.24-0.33
		c-0.11-0.19,0.03-0.41-0.08-0.66c-0.14-0.3-0.28-0.36-0.55-0.14c-1.19,0.86-2.15,1.94-3.07,3.07c-1.13,1.41-2.16,2.87-2.96,4.5
		c-0.28,0.55-0.5,1.13-0.53,1.82c0.25-0.08,0.41-0.28,0.55-0.41c1.77-1.63,3.21-3.57,4.56-5.5c0.19-0.28,0.36-0.53,0.53-0.8
		c0.5-0.72,1.93-0.72,2.43-0.03c0.22,0.33,0.11,0.66,0.08,0.99c-0.14,1.05-0.39,2.07-0.58,3.1c-0.08,0.47-0.22,0.94-0.19,1.49
		c0.83-0.8,1.49-1.66,2.18-2.46c0.61-0.72,1.16-1.46,1.85-2.13c0.39-0.36,0.83-0.64,1.41-0.41c0.36,0.14,0.42,0.25,0.19,0.58
		c-0.94,1.35-1.82,2.74-2.82,4.06c-0.53,0.66-1.08,1.27-1.74,1.8c-0.75,0.61-1.71,0.66-2.54,0.17c-0.47-0.25-0.66-0.69-0.77-1.19
		c-0.11-0.64-0.03-1.27,0.06-1.88c0.03-0.11,0.03-0.22-0.03-0.36c-0.28,0.36-0.55,0.72-0.86,1.08c-0.8,1.02-1.6,2.02-2.57,2.85
		c-1,0.86-2.21,1-3.35,0.36C132.43,44.15,132.05,43.24,132.24,42.13z"/>
	<path class="st0" d="M156.51,38.04c0.14,0.22-0.14,0.33-0.25,0.44c-1.3,1.44-2.27,3.07-3.32,4.67c-1.77,2.71-3.21,5.58-4.75,8.4
		c-0.33,0.64-0.72,1.27-1.16,1.82c-0.55,0.64-1.24,0.86-2.07,0.75c-0.52-0.06-0.86-0.36-0.99-0.88c-0.22-0.86-0.25-1.74-0.19-2.62
		c0.14-3.48,0.72-6.88,1.63-10.25c1.82-6.83,4.31-13.4,7.27-19.82c0.86-1.88,1.66-3.79,2.57-5.64c0.22-0.41,0.44-0.83,0.69-1.24
		c0.44-0.72,1.16-1.02,1.96-0.86c0.47,0.11,0.58,0.3,0.39,0.72c-0.28,0.58-0.53,1.16-0.8,1.71c-2.07,4.31-3.87,8.71-5.61,13.16
		c-2.13,5.42-3.87,10.97-4.97,16.72c-0.44,2.13-0.72,4.28-0.86,6.44c-0.03,0.22,0,0.44,0,0.75c0.33-0.41,0.55-0.8,0.77-1.19
		c1.33-2.21,2.49-4.53,3.9-6.72c1.22-1.82,2.4-3.68,3.9-5.31c0.3-0.33,0.64-0.64,0.99-0.91c0.08-0.08,0.19-0.17,0.3-0.19
		C156.12,37.93,156.37,37.85,156.51,38.04z"/>
	<path class="st0" d="M165.53,39.26c-1.74,1.66-3.62,3.21-5.64,4.53c-0.86,0.58-1.8,1.05-2.85,1.19c-0.3,0.03-0.58,0.06-0.88,0
		c-1.49-0.22-2.1-0.99-2.1-3.01c0.03-0.99,0.5-2.29,1.13-3.54c0.97-1.94,2.21-3.68,3.73-5.2c0.41-0.41,0.83-0.77,1.3-1.05
		c0.83-0.47,1.69-0.47,2.51-0.08c0.66,0.3,0.91,0.8,0.77,1.49c-0.3,1.35-0.97,2.49-1.8,3.57c-0.69,0.88-1.55,1.66-2.46,2.32
		c-0.83,0.64-1.71,0.77-2.6,0.14c-0.14-0.11-0.19-0.06-0.25,0.08c-0.47,1.1-0.86,2.27-0.77,3.51v0.03c0.11,0.99,0.39,1.19,1.3,0.86
		c1.38-0.5,2.63-1.3,3.81-2.13c1.38-0.99,2.74-2.02,4.12-3.04c0.11-0.08,0.22-0.19,0.39-0.22c0.19,0,0.42,0.03,0.5,0.19
		C165.83,39.06,165.64,39.14,165.53,39.26z M157.32,38.01c0.5-0.22,0.97-0.36,1.49-0.11c0.14,0.06,0.19-0.08,0.28-0.14
		c1.08-1.08,1.88-2.32,2.38-3.76c0.08-0.3,0.19-0.61,0.11-0.99C159.75,34.36,158.45,36.11,157.32,38.01z"/>
	<path class="st0" d="M180.4,36.68c0.08,0.14-0.06,0.22-0.14,0.3c-0.44,0.52-0.91,1.05-1.38,1.58c-1.02,1.1-2.07,2.24-3.12,3.37
		c-0.44,0.47-0.99,0.8-1.71,0.8c-0.86,0.03-1.44-0.36-1.71-1.19c-0.28-0.8-0.22-1.63-0.22-2.46c0.03-0.66,0.03-1.35,0.03-2.07
		c-0.69,0.75-1.3,1.58-1.88,2.4c-0.94,1.38-1.74,2.85-2.6,4.26c-0.19,0.36-0.41,0.66-0.61,1.02c-0.53,0.88-1.33,1.1-2.27,0.99
		c-0.72-0.06-1.02-0.39-1.05-1.13c-0.06-1.13,0.17-2.21,0.44-3.26c0.69-2.49,1.71-4.86,2.68-7.21c0.17-0.44,0.33-0.88,0.55-1.3
		c0.3-0.64,1.46-0.94,2.07-0.58c0.22,0.14,0.22,0.33,0.19,0.53c-0.14,0.88-0.47,1.71-0.75,2.57c-0.64,1.94-1.27,3.9-1.8,5.86
		c-0.06,0.17-0.14,0.33-0.11,0.52c0.17-0.06,0.22-0.19,0.3-0.33c1.38-1.93,2.87-3.76,4.5-5.5c0.39-0.44,0.88-0.55,1.44-0.5
		c0.36,0.03,0.58,0.22,0.64,0.58c0.06,0.39,0.11,0.77,0.14,1.13c0.03,1.11,0.06,2.18,0.08,3.29c0,0.44,0.06,0.88,0.28,1.33
		c0.36-0.28,0.64-0.61,0.94-0.91c1.3-1.33,2.54-2.68,3.95-3.9c0.22-0.19,0.47-0.33,0.77-0.3C180.18,36.57,180.32,36.57,180.4,36.68z
		"/>
	<path class="st0" d="M186.68,33.23c0,0.19,0,0.39,0,0.58c0,0.19,0.06,0.44-0.28,0.41c-0.25-0.03-0.44-0.03-0.47-0.41
		c-0.06-0.88-0.39-1.69-0.88-2.4c-0.19-0.28-0.33-0.25-0.53,0c-0.64,0.75-1.13,1.55-1.6,2.4c-1.41,2.62-2.65,5.33-3.4,8.24
		c-0.22,0.86-0.33,1.71-0.28,2.62c0,0.22,0.06,0.44,0.08,0.64c0.14,0.47,0.19,0.5,0.61,0.28c1.33-0.75,2.49-1.66,3.62-2.65
		c1.71-1.46,3.34-3.04,5.11-4.42c0.36-0.3,0.72-0.55,1.1-0.83c0.28-0.19,0.61-0.17,0.91-0.06c0.25,0.08,0.36,0.25,0.11,0.47
		c-0.39,0.39-0.72,0.77-1.11,1.16c-1.96,1.88-3.81,3.9-5.94,5.61c-0.72,0.55-1.44,1.1-2.24,1.49c-0.75,0.39-1.52,0.55-2.35,0.39
		c-1.22-0.19-1.88-0.88-2.05-2.13c-0.19-1.38,0.06-2.71,0.44-4.01c0.97-3.23,2.49-6.19,4.48-8.93c0.22-0.33,0.5-0.64,0.8-0.91
		c1.33-1.16,3.23-0.61,3.7,1.08C186.68,32.32,186.71,32.76,186.68,33.23z"/>
	<path class="st0" d="M193.32,32.29c0.3,0.11,0.44,0.3,0.39,0.66c-0.14,0.86-0.41,1.66-0.64,2.49c-0.63,2.1-1.3,4.2-1.63,6.38
		c-0.11,0.69-0.22,1.41,0.03,2.13c0.14,0.47,0.22,0.5,0.61,0.22c1.3-0.86,2.32-1.99,3.37-3.12c0.94-1.05,1.8-2.18,2.68-3.32
		c0.14-0.19,0.33-0.3,0.58-0.3c0.36,0.03,0.44,0.14,0.25,0.44c-0.72,1.27-1.55,2.46-2.46,3.56c-0.86,1.05-1.74,2.02-2.74,2.93
		c-0.75,0.66-1.6,0.99-2.62,0.94c-1.22-0.11-2.05-0.88-2.21-2.1c-0.03-0.25-0.03-0.5-0.06-0.69c0.08-1.69,0.41-3.26,0.86-4.81
		c0.42-1.55,0.86-3.07,1.49-4.53C191.61,32.26,192.38,31.96,193.32,32.29z M192.32,30.38c-0.28-0.17-0.19-0.39-0.03-0.58
		c0.52-0.52,1.19-0.83,1.88-0.99c0.28-0.06,0.55-0.06,0.77-0.08c0.3,0.03,0.69-0.08,0.75,0.22c0.06,0.3-0.36,0.25-0.58,0.33
		c-0.58,0.17-1.05,0.47-1.46,0.91C193.35,30.55,192.71,30.66,192.32,30.38z"/>
	<path class="st0" d="M195.12,42.13c0.19-1.19,0.69-2.21,1.33-3.21c1.44-2.29,3.18-4.28,5.47-5.78c0.91-0.61,1.91-0.86,2.98-0.52
		c0.94,0.28,1.35,0.77,1.41,1.74c0,0.03,0,0.03,0,0.06c-0.06,0.22,0.25,0.5-0.17,0.64c-0.36,0.14-1.11-0.06-1.24-0.33
		c-0.11-0.19,0.03-0.41-0.08-0.66c-0.14-0.3-0.28-0.36-0.55-0.14c-1.19,0.86-2.16,1.94-3.07,3.07c-1.13,1.41-2.16,2.87-2.96,4.5
		c-0.28,0.55-0.5,1.13-0.53,1.82c0.25-0.08,0.42-0.28,0.55-0.41c1.77-1.63,3.21-3.57,4.56-5.5c0.19-0.28,0.36-0.53,0.53-0.8
		c0.5-0.72,1.93-0.72,2.43-0.03c0.22,0.33,0.11,0.66,0.08,0.99c-0.14,1.05-0.39,2.07-0.58,3.1c-0.08,0.47-0.22,0.94-0.19,1.49
		c0.83-0.8,1.49-1.66,2.18-2.46c0.61-0.72,1.16-1.46,1.85-2.13c0.39-0.36,0.83-0.64,1.41-0.41c0.36,0.14,0.41,0.25,0.19,0.58
		c-0.94,1.35-1.82,2.74-2.82,4.06c-0.53,0.66-1.08,1.27-1.74,1.8c-0.75,0.61-1.71,0.66-2.54,0.17c-0.47-0.25-0.66-0.69-0.77-1.19
		c-0.11-0.64-0.03-1.27,0.06-1.88c0.03-0.11,0.03-0.22-0.03-0.36c-0.28,0.36-0.55,0.72-0.86,1.08c-0.8,1.02-1.6,2.02-2.57,2.85
		c-0.99,0.86-2.21,1-3.34,0.36C195.31,44.15,194.93,43.24,195.12,42.13z"/>
</g>
<g>
	<path d="M-75.7-50.03c5.58-17.58,14.37-33.39,26.75-47.09c3.1-3.43,6.3-6.69,10-9.39c1.71-1.27,3.54-2.32,5.75-2.38
		c1.38-0.05,2.71,0.28,3.92,0.94c1.38,0.77,1.94,1.99,1.94,3.54c0.06,1.82-0.39,3.59-0.88,5.31c-2.21,7.41-4.7,14.7-8.13,21.67
		c-0.72,1.44-1.49,2.88-2.49,4.2c-0.28,0.44-0.61,0.83-1.16,0.94c-1.44,0.22-2.21-0.55-1.88-1.88c0.72-2.88,1.88-5.64,2.87-8.4
		c2.21-6.08,4.37-12.21,5.86-18.52c0.33-1.33,0.55-2.65,0.55-3.98c0-0.83-0.11-0.88-0.83-0.44c-2.98,1.77-5.58,4.09-8.01,6.52
		c-11.06,11.17-19.4,24.21-25.54,38.64c-2.54,6.03-4.75,12.22-5.97,18.68c-0.55,2.93-0.88,5.86-0.39,8.84
		c0.22,1.33,0.66,2.6,1.49,3.65c0.39,0.5,0.77,0.61,1.33,0.39c1.55-0.61,2.82-1.6,3.98-2.71c3.21-2.98,5.97-6.41,8.84-9.78
		c4.26-5.14,8.35-10.34,12.99-15.14c0.88-0.88,1.71-0.72,2.43-0.44c0.77,0.33,0.83,0.61,0.33,1.22c-2.65,3.54-5.36,7.07-8.02,10.56
		c-3.37,4.42-6.63,8.95-10.28,13.1c-1.22,1.44-2.54,2.82-4.09,3.98c-3.7,2.77-8.9,2.43-11.77-0.77c-1.44-1.66-1.94-3.65-2.16-5.75
		c-0.06-0.66,0-1.27,0-1.94C-78.19-41.19-77.14-45.67-75.7-50.03z"/>
	<path d="M-9.46-61.59c0.27,0.44-0.28,0.66-0.5,0.88c-2.6,2.87-4.53,6.13-6.63,9.34c-3.54,5.42-6.41,11.17-9.51,16.8
		c-0.66,1.27-1.44,2.54-2.32,3.65c-1.11,1.27-2.49,1.71-4.15,1.49c-1.05-0.11-1.71-0.72-1.99-1.77c-0.44-1.71-0.5-3.48-0.39-5.25
		c0.28-6.96,1.44-13.76,3.26-20.51c3.65-13.65,8.62-26.81,14.54-39.63c1.71-3.76,3.32-7.57,5.14-11.28
		c0.44-0.83,0.88-1.66,1.38-2.49c0.88-1.44,2.32-2.05,3.92-1.71c0.94,0.22,1.16,0.61,0.77,1.44c-0.55,1.16-1.05,2.32-1.6,3.43
		c-4.15,8.62-7.74,17.41-11.22,26.31c-4.26,10.83-7.74,21.94-9.95,33.44c-0.88,4.26-1.44,8.57-1.71,12.88c-0.05,0.44,0,0.88,0,1.49
		c0.66-0.83,1.11-1.6,1.55-2.38c2.65-4.42,4.98-9.06,7.79-13.43c2.43-3.65,4.81-7.35,7.8-10.61c0.61-0.66,1.27-1.27,1.99-1.82
		c0.17-0.17,0.39-0.33,0.61-0.39C-10.23-61.81-9.74-61.97-9.46-61.59z"/>
	<path d="M-15.7-53.41c0.39-2.38,1.38-4.42,2.65-6.41c2.87-4.59,6.36-8.57,10.95-11.55c1.82-1.22,3.81-1.71,5.97-1.05
		c1.88,0.55,2.71,1.55,2.82,3.48c0,0.06,0,0.06,0,0.11c-0.11,0.44,0.5,0.99-0.33,1.27c-0.72,0.28-2.21-0.11-2.49-0.66
		c-0.22-0.39,0.06-0.83-0.16-1.33c-0.28-0.61-0.55-0.72-1.11-0.28c-2.38,1.71-4.31,3.87-6.13,6.14c-2.27,2.82-4.31,5.75-5.91,9.01
		c-0.55,1.11-0.99,2.27-1.05,3.65c0.5-0.16,0.83-0.55,1.1-0.83c3.54-3.26,6.41-7.13,9.12-11c0.39-0.55,0.72-1.05,1.05-1.6
		c0.99-1.44,3.87-1.44,4.86-0.06c0.44,0.66,0.22,1.33,0.17,1.99c-0.28,2.1-0.77,4.15-1.16,6.19c-0.17,0.94-0.44,1.88-0.39,2.99
		c1.66-1.6,2.99-3.32,4.37-4.92c1.22-1.44,2.32-2.93,3.7-4.26c0.77-0.72,1.66-1.27,2.82-0.83c0.72,0.28,0.83,0.5,0.39,1.16
		c-1.88,2.71-3.65,5.47-5.64,8.12c-1.05,1.33-2.16,2.54-3.48,3.59c-1.49,1.22-3.43,1.33-5.09,0.33c-0.94-0.5-1.33-1.38-1.55-2.38
		c-0.22-1.27-0.06-2.54,0.11-3.76c0.05-0.22,0.05-0.44-0.06-0.72c-0.55,0.72-1.1,1.44-1.71,2.16c-1.6,2.04-3.21,4.03-5.14,5.69
		c-1.99,1.71-4.42,1.99-6.69,0.72C-15.31-49.37-16.08-51.2-15.7-53.41z"/>
	<path d="M26.77-64.68c0-0.11,0-0.16,0.05-0.5c-1.05,1.71-1.88,3.26-2.76,4.87c-1.6,3.04-3.21,6.02-5.2,8.79
		c-0.44,0.61-0.94,1.22-1.49,1.77c-1.33,1.38-2.98,1.55-4.75,0.94c-1.11-0.33-1.6-1.27-1.82-2.32c-0.39-2.21-0.11-4.37,0.22-6.52
		c0.72-4.2,2.21-8.13,4.15-11.94c0.99-1.93,2.54-2.04,4.2-1.66c0.94,0.22,1.05,0.55,0.83,1.49c-1.22,4.31-2.6,8.51-3.54,12.88
		c-0.39,1.55-0.72,3.09-0.83,4.86c1.49-1.66,2.71-3.31,3.76-5.08c2.82-4.64,5.47-9.4,8.34-13.99c0.33-0.5,0.61-0.99,1.22-1.16
		c1.82-0.44,2.65,0.28,2.27,2.05c-0.88,4.64-1.66,9.34-2.05,14.1c0,0.55-0.05,1.1-0.05,1.71c-0.06,0.22,0,0.39,0,0.88
		c1.33-1.49,2.32-2.93,3.42-4.37c1.27-1.6,2.49-3.26,3.76-4.92c0.05-0.17,0.16-0.28,0.27-0.39c0.33-0.44,0.83-0.5,1.27-0.28
		c0.5,0.28,0.28,0.72,0.11,1.1c-1.11,2.27-2.49,4.31-4.03,6.36c-1,1.33-1.99,2.71-3.21,3.87c-0.5,0.44-0.99,0.77-1.6,0.94
		c-1.94,0.44-3.15-0.44-3.26-2.43C25.83-57.33,26.05-61.03,26.77-64.68z"/>
	<path d="M46.35-25.88c-0.06,0.5-0.06,0.88,0.17,1.38c0.16,0.39-0.06,1-0.61,1.22c-0.88,0.33-2.04-0.28-2.21-1.22
		c-0.44-1.99-0.39-4.03-0.44-6.02c-0.22-8.24,1.16-16.2,3.1-24.15c0.11-0.22,0.17-0.5,0.22-0.77c-0.05,0-0.11,0-0.11-0.05
		c-1.16,1.66-2.27,3.37-3.43,4.97c-0.77,1.11-1.55,2.21-2.43,3.21c-1.16,1.44-3.15,1.82-4.81,1.16c-1.05-0.44-1.49-1.33-1.77-2.32
		c-0.38-1.66-0.27-3.26,0-4.92c1-6.36,3.37-12.16,7.68-17.08c1.93-2.21,4.37-3.48,7.41-3.37c0.83,0.06,1.66,0.17,2.38,0.55
		c0.55,0.28,0.77,0.22,0.99-0.39c1.66-4.53,3.59-8.95,5.58-13.38c3.37-7.46,7.19-14.7,11.5-21.67c0.39-0.66,0.88-1.27,1.33-1.88
		c0.39-0.55,0.94-0.83,1.6-0.77c0.66,0.06,1.49,0.11,1.66,0.83c0.11,0.66,0.05,1.49-0.83,1.93c-0.11,0.06-0.16,0.22-0.27,0.39
		c-3.1,6.41-6.58,12.71-9.51,19.29c-5.8,13.15-10.72,26.59-14.04,40.62C47.73-40.97,46.73-33.45,46.35-25.88z M48.5-63.85
		c0.83-1.05,1.38-2.21,1.6-3.48c0.22-1.22,0.11-2.49-0.44-3.59c-0.44-0.94-0.83-0.99-1.66-0.44c-1.16,0.77-2.05,1.82-2.87,2.93
		c-2.6,3.43-4.48,7.3-5.58,11.44c-0.66,2.32-1.22,4.7-1.1,7.19c0.5-0.66,0.99-1.27,1.49-1.94C42.86-55.73,45.46-59.93,48.5-63.85z"
		/>
	<path d="M66.81-73.08c0.61,0.22,0.88,0.61,0.77,1.33c-0.27,1.71-0.83,3.32-1.27,4.98c-1.27,4.2-2.6,8.4-3.26,12.77
		c-0.22,1.38-0.44,2.82,0.06,4.26c0.28,0.94,0.44,0.99,1.22,0.44c2.6-1.71,4.64-3.98,6.74-6.25c1.88-2.1,3.59-4.37,5.36-6.63
		c0.28-0.39,0.66-0.61,1.16-0.61c0.72,0.05,0.88,0.27,0.5,0.88c-1.44,2.54-3.09,4.92-4.92,7.13c-1.71,2.1-3.48,4.03-5.47,5.86
		c-1.49,1.33-3.2,1.99-5.25,1.88c-2.43-0.22-4.09-1.77-4.42-4.2c-0.05-0.5-0.05-0.99-0.11-1.38c0.17-3.37,0.83-6.52,1.71-9.62
		c0.83-3.09,1.71-6.13,2.99-9.06C63.38-73.14,64.93-73.75,66.81-73.08z M64.82-76.9c-0.55-0.33-0.39-0.77-0.05-1.16
		c1.05-1.05,2.38-1.66,3.76-1.99c0.55-0.11,1.1-0.11,1.55-0.17c0.61,0.06,1.38-0.16,1.49,0.44c0.11,0.61-0.72,0.5-1.16,0.66
		c-1.16,0.33-2.1,0.94-2.93,1.82C66.86-76.57,65.59-76.35,64.82-76.9z"/>
	<path d="M70.41-53.41c0.39-2.38,1.38-4.42,2.65-6.41c2.87-4.59,6.36-8.57,10.95-11.55c1.82-1.22,3.81-1.71,5.97-1.05
		c1.88,0.55,2.71,1.55,2.82,3.48c0,0.06,0,0.06,0,0.11c-0.11,0.44,0.5,0.99-0.33,1.27c-0.72,0.28-2.21-0.11-2.49-0.66
		c-0.22-0.39,0.06-0.83-0.16-1.33c-0.28-0.61-0.55-0.72-1.11-0.28c-2.38,1.71-4.31,3.87-6.13,6.14c-2.27,2.82-4.31,5.75-5.91,9.01
		c-0.55,1.11-0.99,2.27-1.05,3.65c0.5-0.16,0.83-0.55,1.1-0.83c3.54-3.26,6.41-7.13,9.12-11c0.39-0.55,0.72-1.05,1.05-1.6
		c0.99-1.44,3.87-1.44,4.86-0.06c0.44,0.66,0.22,1.33,0.17,1.99c-0.28,2.1-0.77,4.15-1.16,6.19c-0.17,0.94-0.44,1.88-0.39,2.99
		c1.66-1.6,2.99-3.32,4.37-4.92c1.22-1.44,2.32-2.93,3.7-4.26c0.77-0.72,1.66-1.27,2.82-0.83c0.72,0.28,0.83,0.5,0.39,1.16
		c-1.88,2.71-3.65,5.47-5.64,8.12c-1.05,1.33-2.16,2.54-3.48,3.59c-1.49,1.22-3.43,1.33-5.09,0.33c-0.94-0.5-1.33-1.38-1.55-2.38
		c-0.22-1.27-0.06-2.54,0.11-3.76c0.05-0.22,0.05-0.44-0.06-0.72c-0.55,0.72-1.1,1.44-1.71,2.16c-1.6,2.04-3.21,4.03-5.14,5.69
		c-1.99,1.71-4.42,1.99-6.69,0.72C70.8-49.37,70.02-51.2,70.41-53.41z"/>
	<path d="M131.35-41.86c-1.38,4.26-2.71,8.51-3.26,12.99c-0.05,0.39-0.05,0.72-0.11,1.1c-0.05,0.44,0,0.83,0.55,0.94
		c0.22,0.05,0.55,0.22,0.5,0.55c0,0.28-0.28,0.33-0.5,0.44c-1.44,0.72-3.26-0.28-3.59-2.05c-0.33-1.6-0.16-3.26,0-4.86
		c0.55-4.2,1.55-8.24,2.71-12.27c0.22-0.88,0.5-1.77,0.55-2.65c0.11-0.83,0.33-1.66,0.66-2.43c1.77-3.92,2.93-8.07,4.37-12.05
		c2.65-7.13,5.2-14.26,8.35-21.17c0.61-1.27,1.22-2.6,1.99-3.76c0.28-0.44,0.61-0.88,1.16-1c0.77-0.11,1.55,0,2.16,0.55
		c0.44,0.5,0,1.05-0.17,1.55c-3.04,8.24-6.25,16.36-9.01,24.65c-0.05,0.28-0.28,0.55-0.11,0.94c1.6-1.05,3.32-1.82,5.14-2.49
		c0.66-0.22,1.27-0.17,1.88,0.11c0.22,0.11,0.5,0.22,0.5,0.5c0.05,0.33-0.28,0.33-0.5,0.44c-0.5,0.22-1.05,0.44-1.55,0.72
		c-2.82,1.38-5.2,3.43-7.19,5.86c-0.28,0.33-0.44,0.77-0.61,1.22c-0.88,2.76-1.82,5.47-2.71,8.24c-0.17,0.5-0.22,0.94,0.17,1.33
		c0.44,0.5,0.88,0.28,1.33,0.11c2.65-0.83,4.87-2.38,6.91-4.2c4.48-3.92,8.02-8.68,11.11-13.65c4.09-6.47,7.57-13.21,9.73-20.51
		c1.05-3.65,1.77-7.35,1.55-11.17c-0.11-1.82-0.39-3.59-1.27-5.25c-1.27-2.54-3.15-3.54-5.97-3.21c-3.76,0.39-7.19,1.77-10.39,3.65
		c-11,6.41-17.96,15.81-20.62,28.3c-0.33,1.49-0.5,2.99-0.44,4.53c0.06,0.5,0.22,0.61,0.66,0.39c0.72-0.44,1.44-0.83,2.1-1.27
		c0.55-0.33,1.05-0.28,1.55,0c0.28,0.16,0.44,0.39,0.06,0.55c-0.83,0.33-1.44,0.99-2.1,1.55c-1.99,1.71-5.47,0.66-5.69-2.43
		c-0.22-2.38,0.16-4.7,0.72-6.96c3.15-13.21,10.89-22.72,23.16-28.46c3.87-1.82,7.96-2.82,12.32-2.27c3.15,0.44,6.08,1.44,8.35,3.92
		c2.16,2.32,2.82,5.19,2.98,8.29c0.22,4.59-0.83,9.06-2.32,13.38c-3.81,10.94-9.67,20.73-17.47,29.29
		c-2.49,2.76-5.31,5.09-8.62,6.69c-2.65,1.27-5.42,1.77-8.29,0.88C131.62-42.46,131.46-42.3,131.35-41.86z"/>
	<path d="M164.48-53.41c0.39-2.38,1.38-4.42,2.65-6.41c2.87-4.59,6.36-8.57,10.95-11.55c1.82-1.22,3.81-1.71,5.97-1.05
		c1.88,0.55,2.71,1.55,2.82,3.48c0,0.06,0,0.06,0,0.11c-0.11,0.44,0.5,0.99-0.33,1.27c-0.72,0.28-2.21-0.11-2.49-0.66
		c-0.22-0.39,0.06-0.83-0.16-1.33c-0.28-0.61-0.55-0.72-1.11-0.28c-2.38,1.71-4.31,3.87-6.13,6.14c-2.27,2.82-4.31,5.75-5.91,9.01
		c-0.55,1.11-0.99,2.27-1.05,3.65c0.5-0.16,0.83-0.55,1.1-0.83c3.54-3.26,6.41-7.13,9.12-11c0.39-0.55,0.72-1.05,1.05-1.6
		c0.99-1.44,3.87-1.44,4.86-0.06c0.44,0.66,0.22,1.33,0.17,1.99c-0.28,2.1-0.77,4.15-1.16,6.19c-0.17,0.94-0.44,1.88-0.39,2.99
		c1.66-1.6,2.99-3.32,4.37-4.92c1.22-1.44,2.32-2.93,3.7-4.26c0.77-0.72,1.66-1.27,2.82-0.83c0.72,0.28,0.83,0.5,0.39,1.16
		c-1.88,2.71-3.65,5.47-5.64,8.12c-1.05,1.33-2.16,2.54-3.48,3.59c-1.49,1.22-3.43,1.33-5.09,0.33c-0.94-0.5-1.33-1.38-1.55-2.38
		c-0.22-1.27-0.06-2.54,0.11-3.76c0.05-0.22,0.05-0.44-0.06-0.72c-0.55,0.72-1.1,1.44-1.71,2.16c-1.6,2.04-3.21,4.03-5.14,5.69
		c-1.99,1.71-4.42,1.99-6.69,0.72C164.87-49.37,164.09-51.2,164.48-53.41z"/>
	<path d="M213.02-61.59c0.27,0.44-0.28,0.66-0.5,0.88c-2.6,2.87-4.53,6.13-6.63,9.34c-3.54,5.42-6.41,11.17-9.51,16.8
		c-0.66,1.27-1.44,2.54-2.32,3.65c-1.11,1.27-2.49,1.71-4.15,1.49c-1.05-0.11-1.71-0.72-1.99-1.77c-0.44-1.71-0.5-3.48-0.39-5.25
		c0.28-6.96,1.44-13.76,3.26-20.51c3.65-13.65,8.62-26.81,14.54-39.63c1.71-3.76,3.32-7.57,5.14-11.28
		c0.44-0.83,0.88-1.66,1.38-2.49c0.88-1.44,2.32-2.05,3.92-1.71c0.94,0.22,1.16,0.61,0.77,1.44c-0.55,1.16-1.05,2.32-1.6,3.43
		c-4.15,8.62-7.74,17.41-11.22,26.31c-4.26,10.83-7.74,21.94-9.95,33.44c-0.88,4.26-1.44,8.57-1.71,12.88c-0.05,0.44,0,0.88,0,1.49
		c0.66-0.83,1.11-1.6,1.55-2.38c2.65-4.42,4.98-9.06,7.79-13.43c2.43-3.65,4.81-7.35,7.8-10.61c0.61-0.66,1.27-1.27,1.99-1.82
		c0.17-0.17,0.39-0.33,0.61-0.39C212.25-61.81,212.75-61.97,213.02-61.59z"/>
	<path d="M231.05-59.16c-3.48,3.31-7.24,6.41-11.28,9.06c-1.71,1.16-3.59,2.1-5.69,2.38c-0.61,0.06-1.16,0.11-1.77,0
		c-2.98-0.44-4.2-1.99-4.2-6.02c0.05-1.99,0.99-4.59,2.27-7.07c1.93-3.87,4.42-7.35,7.46-10.39c0.83-0.83,1.66-1.55,2.6-2.1
		c1.66-0.94,3.37-0.94,5.03-0.17c1.33,0.61,1.82,1.6,1.55,2.98c-0.61,2.71-1.94,4.98-3.59,7.13c-1.38,1.77-3.09,3.32-4.92,4.64
		c-1.66,1.27-3.42,1.55-5.19,0.28c-0.28-0.22-0.39-0.11-0.5,0.17c-0.94,2.21-1.71,4.53-1.55,7.02v0.06c0.22,1.99,0.77,2.38,2.6,1.71
		c2.76-0.99,5.25-2.6,7.63-4.26c2.76-1.99,5.47-4.03,8.24-6.08c0.22-0.17,0.44-0.39,0.77-0.44c0.39,0,0.83,0.06,1,0.39
		C231.66-59.54,231.27-59.38,231.05-59.16z M214.63-61.64c0.99-0.44,1.94-0.72,2.98-0.22c0.28,0.11,0.39-0.17,0.55-0.28
		c2.16-2.16,3.76-4.64,4.75-7.52c0.17-0.61,0.39-1.22,0.22-1.99C219.5-68.94,216.9-65.46,214.63-61.64z"/>
	<path d="M260.8-64.3c0.16,0.28-0.11,0.44-0.28,0.61c-0.88,1.05-1.83,2.1-2.76,3.15c-2.05,2.21-4.15,4.48-6.25,6.74
		c-0.88,0.94-1.99,1.6-3.43,1.6c-1.71,0.05-2.87-0.72-3.43-2.38c-0.55-1.6-0.44-3.26-0.44-4.92c0.06-1.33,0.06-2.71,0.06-4.15
		c-1.38,1.49-2.6,3.15-3.76,4.81c-1.88,2.76-3.48,5.69-5.2,8.51c-0.39,0.72-0.83,1.33-1.22,2.05c-1.05,1.77-2.65,2.21-4.53,1.99
		c-1.44-0.11-2.05-0.77-2.1-2.27c-0.11-2.27,0.33-4.42,0.89-6.52c1.38-4.97,3.42-9.73,5.36-14.42c0.33-0.89,0.66-1.77,1.1-2.6
		c0.61-1.27,2.93-1.88,4.15-1.16c0.44,0.28,0.44,0.66,0.38,1.05c-0.27,1.77-0.94,3.43-1.49,5.14c-1.27,3.87-2.54,7.8-3.59,11.72
		c-0.11,0.33-0.28,0.66-0.22,1.05c0.33-0.11,0.44-0.39,0.61-0.66c2.76-3.87,5.75-7.52,9.01-11c0.77-0.89,1.77-1.11,2.88-1
		c0.72,0.06,1.16,0.44,1.27,1.16c0.11,0.77,0.22,1.55,0.27,2.27c0.06,2.21,0.11,4.37,0.17,6.58c0,0.88,0.11,1.77,0.55,2.65
		c0.72-0.55,1.27-1.22,1.88-1.82c2.6-2.65,5.08-5.36,7.9-7.8c0.44-0.39,0.94-0.66,1.55-0.61C260.36-64.52,260.63-64.52,260.8-64.3z"
		/>
	<path d="M273.36-71.21c0,0.39,0,0.77,0,1.16c0,0.39,0.11,0.88-0.55,0.83c-0.5-0.05-0.89-0.05-0.94-0.83
		c-0.11-1.77-0.77-3.37-1.77-4.81c-0.39-0.55-0.66-0.5-1.05,0c-1.27,1.49-2.27,3.09-3.2,4.81c-2.82,5.25-5.31,10.67-6.8,16.47
		c-0.44,1.71-0.66,3.42-0.55,5.25c0,0.44,0.11,0.88,0.17,1.27c0.27,0.94,0.38,0.99,1.22,0.55c2.65-1.49,4.97-3.32,7.24-5.31
		c3.42-2.93,6.69-6.08,10.23-8.84c0.72-0.61,1.44-1.11,2.21-1.66c0.55-0.39,1.22-0.33,1.82-0.11c0.5,0.16,0.72,0.5,0.22,0.94
		c-0.77,0.77-1.44,1.55-2.21,2.32c-3.92,3.76-7.63,7.79-11.88,11.22c-1.44,1.1-2.88,2.21-4.48,2.98c-1.49,0.77-3.04,1.1-4.7,0.77
		c-2.43-0.39-3.76-1.77-4.09-4.26c-0.38-2.76,0.11-5.42,0.89-8.02c1.93-6.47,4.97-12.38,8.95-17.85c0.44-0.66,0.99-1.27,1.6-1.82
		c2.65-2.32,6.47-1.22,7.41,2.16C273.36-73.03,273.41-72.15,273.36-71.21z"/>
	<path d="M286.64-73.08c0.61,0.22,0.88,0.61,0.77,1.33c-0.27,1.71-0.83,3.32-1.27,4.98c-1.27,4.2-2.6,8.4-3.26,12.77
		c-0.22,1.38-0.44,2.82,0.06,4.26c0.28,0.94,0.44,0.99,1.22,0.44c2.6-1.71,4.64-3.98,6.74-6.25c1.88-2.1,3.59-4.37,5.36-6.63
		c0.28-0.39,0.66-0.61,1.16-0.61c0.72,0.05,0.88,0.27,0.5,0.88c-1.44,2.54-3.09,4.92-4.92,7.13c-1.71,2.1-3.48,4.03-5.47,5.86
		c-1.49,1.33-3.2,1.99-5.25,1.88c-2.43-0.22-4.09-1.77-4.42-4.2c-0.05-0.5-0.05-0.99-0.11-1.38c0.17-3.37,0.83-6.52,1.71-9.62
		c0.83-3.09,1.71-6.13,2.99-9.06C283.21-73.14,284.76-73.75,286.64-73.08z M284.65-76.9c-0.55-0.33-0.39-0.77-0.05-1.16
		c1.05-1.05,2.38-1.66,3.76-1.99c0.55-0.11,1.1-0.11,1.55-0.17c0.61,0.06,1.38-0.16,1.49,0.44c0.11,0.61-0.72,0.5-1.16,0.66
		c-1.16,0.33-2.1,0.94-2.93,1.82C286.69-76.57,285.42-76.35,284.65-76.9z"/>
	<path d="M290.24-53.41c0.39-2.38,1.38-4.42,2.65-6.41c2.87-4.59,6.36-8.57,10.95-11.55c1.82-1.22,3.81-1.71,5.97-1.05
		c1.88,0.55,2.71,1.55,2.82,3.48c0,0.06,0,0.06,0,0.11c-0.11,0.44,0.5,0.99-0.33,1.27c-0.72,0.28-2.21-0.11-2.49-0.66
		c-0.22-0.39,0.06-0.83-0.16-1.33c-0.28-0.61-0.55-0.72-1.11-0.28c-2.38,1.71-4.31,3.87-6.13,6.14c-2.27,2.82-4.31,5.75-5.91,9.01
		c-0.55,1.11-0.99,2.27-1.05,3.65c0.5-0.16,0.83-0.55,1.1-0.83c3.54-3.26,6.41-7.13,9.12-11c0.39-0.55,0.72-1.05,1.05-1.6
		c0.99-1.44,3.87-1.44,4.86-0.06c0.44,0.66,0.22,1.33,0.17,1.99c-0.28,2.1-0.77,4.15-1.16,6.19c-0.16,0.94-0.44,1.88-0.39,2.99
		c1.66-1.6,2.99-3.32,4.37-4.92c1.22-1.44,2.32-2.93,3.7-4.26c0.77-0.72,1.66-1.27,2.82-0.83c0.72,0.28,0.83,0.5,0.39,1.16
		c-1.88,2.71-3.65,5.47-5.64,8.12c-1.05,1.33-2.16,2.54-3.48,3.59c-1.49,1.22-3.43,1.33-5.09,0.33c-0.94-0.5-1.33-1.38-1.55-2.38
		c-0.22-1.27-0.06-2.54,0.11-3.76c0.05-0.22,0.05-0.44-0.06-0.72c-0.55,0.72-1.1,1.44-1.71,2.16c-1.6,2.04-3.21,4.03-5.14,5.69
		c-1.99,1.71-4.42,1.99-6.69,0.72C290.63-49.37,289.85-51.2,290.24-53.41z"/>
</g>
</svg>
